<svg width="30" height="30" viewBox="0 0 30 30" fill="none" xmlns="http://www.w3.org/2000/svg">
<path d="M15 1.875C7.74375 1.875 1.875 7.78125 1.875 15.075C1.875 21.6562 6.675 27.1313 12.9562 28.125V18.9H9.61875V15.075H12.9562V12.1687C12.9562 8.85 14.925 7.03125 17.9062 7.03125C19.35 7.03125 20.85 7.29375 20.85 7.29375V10.5375H19.2C17.5687 10.5375 17.0625 11.55 17.0625 12.6V15.075H20.7L20.1187 18.9H17.0625V28.125C23.3438 27.1313 28.1437 21.675 28.1437 15.075C28.1437 7.78125 22.275 1.875 15.0187 1.875H15Z" fill="#F2E9DC"/>
</svg>
