<svg width="28" height="28" viewBox="0 0 28 28" fill="none" xmlns="http://www.w3.org/2000/svg">
<g clip-path="url(#clip0_138_347)">
<path d="M18.1996 14.0001C18.1996 15.114 17.7571 16.1823 16.9694 16.9699C16.1818 17.7576 15.1135 18.2001 13.9996 18.2001C12.8857 18.2001 11.8174 17.7576 11.0297 16.9699C10.2421 16.1823 9.79957 15.114 9.79957 14.0001C9.79957 13.7607 9.82477 13.5269 9.86817 13.3001H8.39957V18.8959C8.39957 19.2851 8.71457 19.6001 9.10377 19.6001H18.8968C19.0833 19.5997 19.2621 19.5253 19.3938 19.3933C19.5256 19.2613 19.5996 19.0824 19.5996 18.8959V13.3001H18.131C18.1744 13.5269 18.1996 13.7607 18.1996 14.0001ZM13.9996 16.8001C14.3674 16.8 14.7315 16.7274 15.0713 16.5866C15.4111 16.4458 15.7198 16.2394 15.9798 15.9793C16.2398 15.7191 16.446 15.4103 16.5866 15.0705C16.7273 14.7307 16.7997 14.3665 16.7996 13.9987C16.7995 13.6309 16.7269 13.2667 16.5861 12.9269C16.4453 12.5872 16.2389 12.2785 15.9788 12.0185C15.7186 11.7585 15.4098 11.5522 15.07 11.4116C14.7302 11.2709 14.366 11.1986 13.9982 11.1987C13.2554 11.1988 12.5431 11.4941 12.018 12.0195C11.4929 12.5448 11.198 13.2573 11.1982 14.0001C11.1984 14.7429 11.4936 15.4551 12.019 15.9802C12.5443 16.5054 13.2568 16.8002 13.9996 16.8001ZM17.3596 11.0601H19.0382C19.1497 11.0601 19.2567 11.0159 19.3357 10.9371C19.4146 10.8584 19.4592 10.7516 19.4596 10.6401V8.96146C19.4596 8.8497 19.4152 8.74251 19.3361 8.66348C19.2571 8.58446 19.1499 8.54006 19.0382 8.54006H17.3596C17.2478 8.54006 17.1406 8.58446 17.0616 8.66348C16.9826 8.74251 16.9382 8.8497 16.9382 8.96146V10.6401C16.9396 10.8711 17.1286 11.0601 17.3596 11.0601ZM13.9996 0.560059C10.4351 0.560059 7.01654 1.97605 4.49606 4.49654C1.97557 7.01703 0.55957 10.4356 0.55957 14.0001C0.55957 17.5646 1.97557 20.9831 4.49606 23.5036C7.01654 26.0241 10.4351 27.4401 13.9996 27.4401C15.7645 27.4401 17.5122 27.0924 19.1428 26.417C20.7735 25.7416 22.2551 24.7516 23.5031 23.5036C24.7511 22.2556 25.7411 20.7739 26.4165 19.1433C27.0919 17.5127 27.4396 15.765 27.4396 14.0001C27.4396 12.2351 27.0919 10.4874 26.4165 8.85679C25.7411 7.22618 24.7511 5.74456 23.5031 4.49654C22.2551 3.24852 20.7735 2.25854 19.1428 1.58312C17.5122 0.907695 15.7645 0.560059 13.9996 0.560059ZM20.9996 19.4447C20.9996 20.3001 20.2996 21.0001 19.4442 21.0001H8.55497C7.69957 21.0001 6.99957 20.3001 6.99957 19.4447V8.55546C6.99957 7.70006 7.69957 7.00006 8.55497 7.00006H19.4442C20.2996 7.00006 20.9996 7.70006 20.9996 8.55546V19.4447Z" fill="#F2E9DC"/>
</g>
<defs>
<clipPath id="clip0_138_347">
<rect width="28" height="28" fill="white"/>
</clipPath>
</defs>
</svg>
